<?xml version="1.0" standalone="no"?>
<!DOCTYPE svg PUBLIC "-//W3C//DTD SVG 20010904//EN"
 "http://www.w3.org/TR/2001/REC-SVG-20010904/DTD/svg10.dtd">
<svg version="1.0" xmlns="http://www.w3.org/2000/svg"
 width="1000.000000pt" height="1000.000000pt" viewBox="0 0 1000.000000 1000.000000"
 preserveAspectRatio="xMidYMid meet">
<metadata>
Created by potrace 1.11, written by Peter Selinger 2001-2013
</metadata>
<g transform="translate(0.000000,1000.000000) scale(0.100000,-0.100000)"
fill="#000000" stroke="none">
<path d="M1370 6915 l0 -1715 3625 0 3625 0 0 1715 0 1715 -3625 0 -3625 0 0
-1715z m1330 1111 l0 -44 -120 -4 c-101 -3 -124 -7 -147 -25 -44 -32 -63 -74
-74 -165 -15 -125 -7 -1711 9 -1760 17 -50 61 -94 108 -107 21 -6 81 -14 132
-18 l92 -6 0 -39 0 -38 -515 0 -515 0 0 38 0 39 93 6 c50 4 109 11 129 17 47
13 93 60 110 108 16 49 24 1658 9 1776 -12 87 -36 136 -78 156 -16 7 -78 15
-145 18 l-118 4 0 44 0 44 515 0 515 0 0 -44z m2100 -1 l0 -45 -117 0 c-141
-1 -186 -10 -223 -45 -56 -53 -55 -43 -55 -1010 0 -872 0 -891 20 -924 45 -77
87 -90 320 -98 211 -7 385 8 467 41 137 55 238 197 319 444 l33 102 38 0 38 0
0 -108 c0 -60 -3 -211 -7 -335 l-6 -227 -954 0 -953 0 0 40 0 40 53 0 c80 0
178 19 214 41 17 11 42 41 55 67 l23 47 0 895 0 895 -24 48 c-33 68 -61 80
-203 85 l-118 4 0 44 0 44 540 0 540 0 0 -45z m2830 1 l0 -44 -117 -4 c-170
-6 -202 -29 -223 -164 -7 -46 -10 -349 -8 -914 3 -841 3 -845 25 -892 34 -74
78 -94 231 -105 l92 -6 0 -39 0 -38 -515 0 -515 0 0 38 0 39 93 6 c121 9 159
21 195 61 59 67 57 34 57 981 0 942 0 938 -54 988 -36 34 -89 47 -198 47 l-93
0 0 45 0 45 515 0 515 0 0 -44z m-4355 -1915 c72 -33 105 -86 105 -168 0 -167
-222 -237 -320 -101 -55 75 -48 167 17 231 57 58 127 71 198 38z m2915 -15
c83 -55 104 -178 44 -253 -106 -131 -308 -74 -322 90 -7 84 37 152 119 187 37
16 118 3 159 -24z m2016 15 c109 -50 138 -192 58 -281 -87 -96 -242 -73 -295
44 -24 54 -24 100 2 153 43 89 144 125 235 84z"/>
<path d="M2050 4703 c-328 -55 -567 -287 -634 -613 -23 -117 -29 -235 -17
-340 16 -133 36 -202 84 -300 33 -68 59 -103 132 -176 75 -76 104 -98 175
-132 139 -67 190 -76 390 -76 129 0 192 4 240 16 87 22 227 73 268 98 l32 20
-2 412 -3 413 -292 3 -293 2 0 -170 0 -170 110 0 110 0 0 -130 c0 -126 -1
-130 -22 -134 -101 -21 -226 -10 -309 25 -65 28 -141 112 -169 185 -43 117
-49 289 -14 428 57 222 220 317 489 287 59 -7 134 -21 168 -31 34 -11 64 -16
68 -12 3 4 23 75 44 157 21 83 40 155 42 161 5 15 -102 51 -205 70 -71 12
-331 17 -392 7z"/>
<path d="M2955 4679 c-3 -8 -4 -369 -3 -804 l3 -790 203 -3 202 -2 0 280 0
280 55 0 c70 0 116 -19 147 -60 12 -17 68 -136 123 -263 l100 -232 213 -3
c116 -1 212 1 212 5 0 15 -212 509 -235 548 -25 44 -76 99 -114 123 l-23 16
48 24 c156 78 224 200 224 401 0 192 -86 326 -265 412 -133 64 -178 70 -552
76 -275 4 -334 3 -338 -8z m651 -363 c62 -29 84 -68 84 -154 0 -116 -72 -171
-236 -180 l-94 -5 0 182 0 181 98 0 c81 0 105 -4 148 -24z"/>
<path d="M4796 4643 c-76 -153 -232 -580 -345 -948 -71 -232 -171 -585 -171
-605 0 -7 67 -10 207 -8 l207 3 36 145 36 145 262 3 261 2 10 -37 c5 -21 22
-89 36 -150 l27 -113 210 0 210 0 -7 33 c-4 17 -40 148 -81 290 -126 440 -304
953 -419 1205 l-38 82 -208 0 -209 0 -24 -47z m273 -490 c24 -66 67 -206 127
-415 5 -17 -8 -18 -165 -18 -102 0 -171 4 -171 10 0 5 20 79 45 165 55 189
116 358 126 348 4 -5 21 -45 38 -90z"/>
<path d="M5940 3884 l0 -806 358 5 c385 5 423 10 563 64 96 37 169 86 248 165
102 102 167 229 197 386 18 95 18 289 0 384 -64 334 -310 555 -666 598 -46 5
-223 10 -392 10 l-308 0 0 -806z m716 441 c168 -50 244 -187 244 -437 0 -231
-62 -359 -202 -424 -58 -27 -74 -29 -205 -32 l-143 -4 0 456 0 456 128 0 c84
0 146 -5 178 -15z"/>
<path d="M7530 3885 l0 -805 513 2 512 3 0 170 0 170 -312 3 -313 2 0 145 0
145 265 0 265 0 0 170 0 170 -265 0 -265 0 0 140 0 140 313 2 312 3 0 170 0
170 -512 3 -513 2 0 -805z"/>
<path d="M1726 2429 c-77 -11 -154 -48 -208 -98 -165 -152 -169 -510 -7 -672
82 -82 227 -122 360 -100 84 14 149 38 149 56 0 14 -27 139 -35 162 -3 8 -17
6 -52 -7 -143 -54 -255 -23 -298 82 -27 67 -25 218 5 286 41 95 124 126 252
93 40 -11 74 -18 76 -16 6 5 42 149 42 166 0 34 -178 64 -284 48z"/>
<path d="M3855 2429 c-82 -12 -175 -60 -224 -115 -150 -171 -146 -493 9 -653
104 -107 309 -139 470 -75 45 18 45 19 25 111 -23 100 -20 96 -53 79 -16 -8
-58 -20 -93 -27 -81 -14 -140 0 -185 45 -41 41 -57 100 -57 208 1 74 5 96 27
142 31 63 57 83 126 96 39 7 65 5 122 -9 40 -11 74 -18 76 -16 6 5 42 149 42
166 0 34 -178 64 -285 48z"/>
<path d="M7334 2430 c-197 -29 -324 -199 -324 -435 0 -240 121 -402 328 -436
131 -22 258 16 345 103 88 88 122 197 115 368 -6 117 -24 176 -77 254 -77 111
-231 169 -387 146z m156 -208 c13 -8 33 -25 42 -36 55 -65 64 -260 17 -352
-48 -96 -166 -121 -244 -53 -50 44 -70 106 -70 214 0 104 19 166 64 209 48 46
134 54 191 18z"/>
<path d="M2302 2298 c-66 -164 -232 -678 -232 -722 0 -3 49 -6 110 -6 l109 0
11 40 c5 22 15 58 20 80 l11 41 137 -3 137 -3 20 -77 19 -78 113 0 112 0 -15
53 c-98 339 -169 554 -238 715 l-33 77 -115 3 -116 3 -50 -123z m218 -260 l38
-123 -85 -3 c-47 -2 -88 -1 -90 2 -6 5 32 141 59 214 14 36 23 51 30 44 6 -6
27 -66 48 -134z"/>
<path d="M2950 1995 l0 -425 265 0 265 0 0 90 0 90 -155 0 -155 0 0 335 0 335
-110 0 -110 0 0 -425z"/>
<path d="M4250 2152 c0 -286 8 -358 45 -433 64 -124 219 -189 385 -159 119 22
197 79 243 179 20 43 22 64 25 364 l3 317 -105 0 -105 0 -3 -287 c-3 -268 -4
-290 -23 -323 -27 -46 -79 -73 -128 -65 -53 8 -74 23 -97 71 -18 37 -20 62
-20 322 l0 282 -110 0 -110 0 0 -268z"/>
<path d="M5090 1995 l0 -425 265 0 265 0 0 90 0 90 -155 0 -155 0 0 335 0 335
-110 0 -110 0 0 -425z"/>
<path d="M5937 2363 c-39 -88 -90 -224 -135 -363 -46 -143 -122 -403 -122
-419 0 -7 38 -11 109 -11 l109 0 19 78 19 77 139 0 139 0 19 -77 19 -78 109 0
c71 0 109 4 109 11 0 50 -167 568 -237 732 l-45 107 -113 0 -112 0 -26 -57z
m187 -312 c20 -63 36 -120 36 -128 0 -10 -21 -13 -85 -13 -69 0 -85 3 -85 15
0 15 68 232 77 248 10 16 21 -9 57 -122z"/>
<path d="M6330 2330 l0 -90 105 0 105 0 0 -335 0 -335 105 0 105 0 0 335 0
335 105 0 105 0 0 90 0 90 -315 0 -315 0 0 -90z"/>
<path d="M7920 1996 l0 -426 110 0 110 0 0 145 0 145 34 0 c19 0 44 -8 56 -18
12 -10 46 -74 75 -142 l53 -125 116 -3 116 -3 -19 48 c-64 161 -116 265 -145
289 -30 26 -30 27 -11 38 11 6 38 29 61 51 41 39 64 101 64 169 0 94 -70 189
-168 228 -51 19 -79 22 -254 26 l-198 4 0 -426z m366 213 c24 -23 32 -76 18
-114 -10 -25 -59 -45 -114 -45 l-50 0 0 96 0 97 61 -6 c44 -4 67 -11 85 -28z"/>
</g>
</svg>
